<svg xmlns="http://www.w3.org/2000/svg" xmlns:xlink="http://www.w3.org/1999/xlink" width="400" zoomAndPan="magnify" viewBox="0 0 300 74.999997" height="100" preserveAspectRatio="xMidYMid meet" version="1.0"><defs><g/><clipPath id="82459945c1"><path d="M 36.191406 11.109375 L 96.941406 11.109375 L 96.941406 63.609375 L 36.191406 63.609375 Z M 36.191406 11.109375 " clip-rule="nonzero"/></clipPath></defs><g clip-path="url(#82459945c1)"><path fill="#41038f" d="M 82.019531 47.105469 C 82.019531 49.640625 79.96875 51.691406 77.433594 51.691406 C 74.90625 51.691406 72.855469 49.640625 72.855469 47.105469 C 72.855469 44.574219 74.90625 42.523438 77.433594 42.523438 C 79.96875 42.523438 82.019531 44.574219 82.019531 47.105469 Z M 60.632812 47.105469 C 60.632812 49.640625 58.578125 51.691406 56.050781 51.691406 C 53.519531 51.691406 51.46875 49.640625 51.46875 47.105469 C 51.46875 44.574219 53.519531 42.523438 56.050781 42.523438 C 58.578125 42.523438 60.632812 44.574219 60.632812 47.105469 Z M 88.132812 54.742188 C 88.125 58.117188 85.390625 60.851562 82.019531 60.851562 L 51.46875 60.851562 C 48.09375 60.851562 45.359375 58.117188 45.359375 54.742188 L 45.359375 39.46875 C 45.359375 36.09375 48.09375 33.359375 51.46875 33.355469 L 82.019531 33.355469 C 85.390625 33.359375 88.125 36.09375 88.132812 39.46875 Z M 92.710938 42.523438 L 91.179688 42.523438 L 91.179688 39.46875 C 91.179688 34.40625 87.078125 30.300781 82.019531 30.300781 L 69.796875 30.300781 L 69.796875 23.347656 C 72.71875 21.660156 73.722656 17.921875 72.03125 15 C 70.34375 12.074219 66.613281 11.078125 63.6875 12.761719 C 60.765625 14.449219 59.761719 18.1875 61.453125 21.105469 C 61.984375 22.039062 62.761719 22.808594 63.6875 23.347656 L 63.6875 30.300781 L 51.46875 30.300781 C 46.40625 30.300781 42.300781 34.40625 42.300781 39.46875 L 42.300781 42.523438 L 40.777344 42.523438 C 38.242188 42.523438 36.191406 44.574219 36.191406 47.105469 C 36.191406 49.640625 38.242188 51.691406 40.777344 51.691406 L 42.300781 51.691406 L 42.300781 54.742188 C 42.300781 59.804688 46.40625 63.910156 51.46875 63.910156 L 82.019531 63.910156 C 87.078125 63.910156 91.179688 59.804688 91.179688 54.742188 L 91.179688 51.691406 L 92.710938 51.691406 C 95.242188 51.691406 97.292969 49.640625 97.292969 47.105469 C 97.292969 44.574219 95.242188 42.523438 92.710938 42.523438 " fill-opacity="1" fill-rule="nonzero"/></g><g fill="#000000" fill-opacity="1"><g transform="translate(128.78856, 42.423798)"><g><path d="M 8.984375 -11.75 C 9.285156 -11.75 9.53125 -11.65625 9.71875 -11.46875 C 9.90625 -11.289062 10 -11.0625 10 -10.78125 C 10 -10.488281 9.90625 -10.253906 9.71875 -10.078125 C 9.53125 -9.898438 9.285156 -9.8125 8.984375 -9.8125 L 6.34375 -9.8125 L 6.34375 -1.03125 C 6.34375 -0.738281 6.234375 -0.492188 6.015625 -0.296875 C 5.804688 -0.0976562 5.546875 0 5.234375 0 C 4.921875 0 4.660156 -0.0976562 4.453125 -0.296875 C 4.253906 -0.492188 4.15625 -0.738281 4.15625 -1.03125 L 4.15625 -9.8125 L 1.53125 -9.8125 C 1.226562 -9.8125 0.976562 -9.898438 0.78125 -10.078125 C 0.59375 -10.265625 0.5 -10.503906 0.5 -10.796875 C 0.5 -11.066406 0.597656 -11.289062 0.796875 -11.46875 C 0.992188 -11.65625 1.238281 -11.75 1.53125 -11.75 Z M 8.984375 -11.75 "/></g></g></g><g fill="#000000" fill-opacity="1"><g transform="translate(139.294133, 42.423798)"><g><path d="M 9.140625 -4.703125 C 9.128906 -4.429688 9.023438 -4.210938 8.828125 -4.046875 C 8.628906 -3.878906 8.394531 -3.796875 8.125 -3.796875 L 2.578125 -3.796875 C 2.710938 -3.128906 3.019531 -2.609375 3.5 -2.234375 C 3.988281 -1.859375 4.535156 -1.671875 5.140625 -1.671875 C 5.597656 -1.671875 5.953125 -1.710938 6.203125 -1.796875 C 6.460938 -1.890625 6.664062 -1.984375 6.8125 -2.078125 C 6.96875 -2.171875 7.070312 -2.234375 7.125 -2.265625 C 7.332031 -2.367188 7.523438 -2.421875 7.703125 -2.421875 C 7.941406 -2.421875 8.144531 -2.332031 8.3125 -2.15625 C 8.476562 -1.988281 8.5625 -1.796875 8.5625 -1.578125 C 8.5625 -1.273438 8.40625 -1 8.09375 -0.75 C 7.78125 -0.5 7.359375 -0.28125 6.828125 -0.09375 C 6.304688 0.0820312 5.773438 0.171875 5.234375 0.171875 C 4.296875 0.171875 3.476562 -0.0195312 2.78125 -0.40625 C 2.082031 -0.800781 1.539062 -1.34375 1.15625 -2.03125 C 0.78125 -2.726562 0.59375 -3.503906 0.59375 -4.359375 C 0.59375 -5.328125 0.789062 -6.171875 1.1875 -6.890625 C 1.59375 -7.617188 2.125 -8.175781 2.78125 -8.5625 C 3.445312 -8.945312 4.15625 -9.140625 4.90625 -9.140625 C 5.632812 -9.140625 6.328125 -8.9375 6.984375 -8.53125 C 7.640625 -8.132812 8.160156 -7.59375 8.546875 -6.90625 C 8.941406 -6.226562 9.140625 -5.492188 9.140625 -4.703125 Z M 4.90625 -7.296875 C 3.601562 -7.296875 2.832031 -6.6875 2.59375 -5.46875 L 7 -5.46875 L 7 -5.59375 C 6.957031 -6.0625 6.726562 -6.460938 6.3125 -6.796875 C 5.894531 -7.128906 5.425781 -7.296875 4.90625 -7.296875 Z M 4.90625 -7.296875 "/></g></g></g><g fill="#000000" fill-opacity="1"><g transform="translate(149.027732, 42.423798)"><g><path d="M 5.890625 -9.140625 C 7.035156 -9.140625 7.820312 -8.800781 8.25 -8.125 C 8.6875 -7.445312 8.90625 -6.507812 8.90625 -5.3125 L 8.90625 -1.03125 C 8.90625 -0.738281 8.8125 -0.492188 8.625 -0.296875 C 8.4375 -0.0976562 8.195312 0 7.90625 0 C 7.613281 0 7.367188 -0.0976562 7.171875 -0.296875 C 6.984375 -0.492188 6.890625 -0.738281 6.890625 -1.03125 L 6.890625 -5.3125 C 6.890625 -5.9375 6.757812 -6.421875 6.5 -6.765625 C 6.25 -7.117188 5.8125 -7.296875 5.1875 -7.296875 C 4.539062 -7.296875 4.03125 -7.109375 3.65625 -6.734375 C 3.289062 -6.359375 3.109375 -5.882812 3.109375 -5.3125 L 3.109375 -1.03125 C 3.109375 -0.738281 3.007812 -0.492188 2.8125 -0.296875 C 2.625 -0.0976562 2.382812 0 2.09375 0 C 1.800781 0 1.5625 -0.0976562 1.375 -0.296875 C 1.1875 -0.492188 1.09375 -0.738281 1.09375 -1.03125 L 1.09375 -7.953125 C 1.09375 -8.242188 1.1875 -8.488281 1.375 -8.6875 C 1.5625 -8.882812 1.800781 -8.984375 2.09375 -8.984375 C 2.382812 -8.984375 2.625 -8.882812 2.8125 -8.6875 C 3.007812 -8.488281 3.109375 -8.242188 3.109375 -7.953125 L 3.109375 -7.671875 C 3.410156 -8.066406 3.800781 -8.410156 4.28125 -8.703125 C 4.769531 -8.992188 5.304688 -9.140625 5.890625 -9.140625 Z M 5.890625 -9.140625 "/></g></g></g><g fill="#000000" fill-opacity="1"><g transform="translate(159.029847, 42.423798)"><g><path d="M 0.578125 -1.390625 C 0.472656 -1.523438 0.421875 -1.691406 0.421875 -1.890625 C 0.421875 -2.179688 0.566406 -2.429688 0.859375 -2.640625 C 1.015625 -2.734375 1.175781 -2.78125 1.34375 -2.78125 C 1.570312 -2.78125 1.796875 -2.675781 2.015625 -2.46875 C 2.347656 -2.125 2.695312 -1.863281 3.0625 -1.6875 C 3.425781 -1.519531 3.863281 -1.4375 4.375 -1.4375 C 5.25 -1.476562 5.6875 -1.8125 5.6875 -2.4375 C 5.6875 -2.757812 5.535156 -3.003906 5.234375 -3.171875 C 4.941406 -3.335938 4.484375 -3.503906 3.859375 -3.671875 C 3.210938 -3.847656 2.679688 -4.023438 2.265625 -4.203125 C 1.859375 -4.390625 1.503906 -4.664062 1.203125 -5.03125 C 0.910156 -5.394531 0.765625 -5.882812 0.765625 -6.5 C 0.765625 -7.03125 0.914062 -7.492188 1.21875 -7.890625 C 1.53125 -8.285156 1.9375 -8.59375 2.4375 -8.8125 C 2.9375 -9.03125 3.46875 -9.140625 4.03125 -9.140625 C 4.601562 -9.140625 5.171875 -9.035156 5.734375 -8.828125 C 6.304688 -8.617188 6.753906 -8.304688 7.078125 -7.890625 C 7.222656 -7.710938 7.296875 -7.507812 7.296875 -7.28125 C 7.296875 -7.019531 7.191406 -6.804688 6.984375 -6.640625 C 6.828125 -6.515625 6.644531 -6.453125 6.4375 -6.453125 C 6.195312 -6.453125 6 -6.535156 5.84375 -6.703125 C 5.632812 -6.941406 5.367188 -7.132812 5.046875 -7.28125 C 4.734375 -7.425781 4.378906 -7.5 3.984375 -7.5 C 3.128906 -7.5 2.703125 -7.191406 2.703125 -6.578125 C 2.703125 -6.328125 2.78125 -6.125 2.9375 -5.96875 C 3.09375 -5.820312 3.289062 -5.707031 3.53125 -5.625 C 3.769531 -5.539062 4.109375 -5.4375 4.546875 -5.3125 C 5.148438 -5.144531 5.648438 -4.972656 6.046875 -4.796875 C 6.453125 -4.617188 6.796875 -4.34375 7.078125 -3.96875 C 7.359375 -3.601562 7.5 -3.117188 7.5 -2.515625 C 7.5 -1.960938 7.335938 -1.484375 7.015625 -1.078125 C 6.691406 -0.671875 6.273438 -0.359375 5.765625 -0.140625 C 5.253906 0.0664062 4.734375 0.171875 4.203125 0.171875 C 3.460938 0.171875 2.769531 0.046875 2.125 -0.203125 C 1.488281 -0.453125 0.972656 -0.847656 0.578125 -1.390625 Z M 0.578125 -1.390625 "/></g></g></g><g fill="#000000" fill-opacity="1"><g transform="translate(167.1188, 42.423798)"><g><path d="M 9.71875 -4.484375 C 9.71875 -3.585938 9.515625 -2.78125 9.109375 -2.0625 C 8.710938 -1.351562 8.160156 -0.800781 7.453125 -0.40625 C 6.753906 -0.0195312 5.988281 0.171875 5.15625 0.171875 C 4.300781 0.171875 3.523438 -0.0195312 2.828125 -0.40625 C 2.140625 -0.800781 1.59375 -1.351562 1.1875 -2.0625 C 0.789062 -2.78125 0.59375 -3.585938 0.59375 -4.484375 C 0.59375 -5.378906 0.789062 -6.179688 1.1875 -6.890625 C 1.59375 -7.597656 2.140625 -8.148438 2.828125 -8.546875 C 3.523438 -8.941406 4.300781 -9.140625 5.15625 -9.140625 C 5.988281 -9.140625 6.753906 -8.941406 7.453125 -8.546875 C 8.160156 -8.148438 8.710938 -7.597656 9.109375 -6.890625 C 9.515625 -6.179688 9.71875 -5.378906 9.71875 -4.484375 Z M 7.703125 -4.484375 C 7.703125 -5.023438 7.585938 -5.507812 7.359375 -5.9375 C 7.128906 -6.375 6.820312 -6.707031 6.4375 -6.9375 C 6.050781 -7.175781 5.625 -7.296875 5.15625 -7.296875 C 4.6875 -7.296875 4.257812 -7.175781 3.875 -6.9375 C 3.488281 -6.707031 3.175781 -6.375 2.9375 -5.9375 C 2.707031 -5.507812 2.59375 -5.023438 2.59375 -4.484375 C 2.59375 -3.929688 2.707031 -3.441406 2.9375 -3.015625 C 3.175781 -2.597656 3.488281 -2.269531 3.875 -2.03125 C 4.257812 -1.789062 4.6875 -1.671875 5.15625 -1.671875 C 5.625 -1.671875 6.050781 -1.789062 6.4375 -2.03125 C 6.820312 -2.269531 7.128906 -2.597656 7.359375 -3.015625 C 7.585938 -3.441406 7.703125 -3.929688 7.703125 -4.484375 Z M 7.703125 -4.484375 "/></g></g></g><g fill="#000000" fill-opacity="1"><g transform="translate(177.422987, 42.423798)"><g><path d="M 5.75 -9.140625 C 6.09375 -9.140625 6.378906 -9.046875 6.609375 -8.859375 C 6.835938 -8.671875 6.953125 -8.445312 6.953125 -8.1875 C 6.953125 -7.84375 6.859375 -7.582031 6.671875 -7.40625 C 6.492188 -7.238281 6.285156 -7.15625 6.046875 -7.15625 C 5.878906 -7.15625 5.6875 -7.191406 5.46875 -7.265625 C 5.4375 -7.273438 5.359375 -7.296875 5.234375 -7.328125 C 5.117188 -7.367188 4.992188 -7.390625 4.859375 -7.390625 C 4.578125 -7.390625 4.300781 -7.296875 4.03125 -7.109375 C 3.757812 -6.929688 3.535156 -6.660156 3.359375 -6.296875 C 3.191406 -5.929688 3.109375 -5.5 3.109375 -5 L 3.109375 -1.03125 C 3.109375 -0.738281 3.007812 -0.492188 2.8125 -0.296875 C 2.625 -0.0976562 2.382812 0 2.09375 0 C 1.800781 0 1.5625 -0.0976562 1.375 -0.296875 C 1.1875 -0.492188 1.09375 -0.738281 1.09375 -1.03125 L 1.09375 -7.953125 C 1.09375 -8.242188 1.1875 -8.488281 1.375 -8.6875 C 1.5625 -8.882812 1.800781 -8.984375 2.09375 -8.984375 C 2.382812 -8.984375 2.625 -8.882812 2.8125 -8.6875 C 3.007812 -8.488281 3.109375 -8.242188 3.109375 -7.953125 L 3.109375 -7.734375 C 3.359375 -8.191406 3.722656 -8.539062 4.203125 -8.78125 C 4.691406 -9.019531 5.207031 -9.140625 5.75 -9.140625 Z M 5.75 -9.140625 "/></g></g><g transform="translate(184.706403, 42.423798)"><g><path d="M 8.984375 -11.75 C 9.285156 -11.75 9.53125 -11.65625 9.71875 -11.46875 C 9.90625 -11.289062 10 -11.0625 10 -10.78125 C 10 -10.488281 9.90625 -10.253906 9.71875 -10.078125 C 9.53125 -9.898438 9.285156 -9.8125 8.984375 -9.8125 L 6.34375 -9.8125 L 6.34375 -1.03125 C 6.34375 -0.738281 6.234375 -0.492188 6.015625 -0.296875 C 5.804688 -0.0976562 5.546875 0 5.234375 0 C 4.921875 0 4.660156 -0.0976562 4.453125 -0.296875 C 4.253906 -0.492188 4.15625 -0.738281 4.15625 -1.03125 L 4.15625 -9.8125 L 1.53125 -9.8125 C 1.226562 -9.8125 0.976562 -9.898438 0.78125 -10.078125 C 0.59375 -10.265625 0.5 -10.503906 0.5 -10.796875 C 0.5 -11.066406 0.597656 -11.289062 0.796875 -11.46875 C 0.992188 -11.65625 1.238281 -11.75 1.53125 -11.75 Z M 8.984375 -11.75 "/></g></g><g transform="translate(195.211976, 42.423798)"><g><path d="M 5.75 -9.140625 C 6.09375 -9.140625 6.378906 -9.046875 6.609375 -8.859375 C 6.835938 -8.671875 6.953125 -8.445312 6.953125 -8.1875 C 6.953125 -7.84375 6.859375 -7.582031 6.671875 -7.40625 C 6.492188 -7.238281 6.285156 -7.15625 6.046875 -7.15625 C 5.878906 -7.15625 5.6875 -7.191406 5.46875 -7.265625 C 5.4375 -7.273438 5.359375 -7.296875 5.234375 -7.328125 C 5.117188 -7.367188 4.992188 -7.390625 4.859375 -7.390625 C 4.578125 -7.390625 4.300781 -7.296875 4.03125 -7.109375 C 3.757812 -6.929688 3.535156 -6.660156 3.359375 -6.296875 C 3.191406 -5.929688 3.109375 -5.5 3.109375 -5 L 3.109375 -1.03125 C 3.109375 -0.738281 3.007812 -0.492188 2.8125 -0.296875 C 2.625 -0.0976562 2.382812 0 2.09375 0 C 1.800781 0 1.5625 -0.0976562 1.375 -0.296875 C 1.1875 -0.492188 1.09375 -0.738281 1.09375 -1.03125 L 1.09375 -7.953125 C 1.09375 -8.242188 1.1875 -8.488281 1.375 -8.6875 C 1.5625 -8.882812 1.800781 -8.984375 2.09375 -8.984375 C 2.382812 -8.984375 2.625 -8.882812 2.8125 -8.6875 C 3.007812 -8.488281 3.109375 -8.242188 3.109375 -7.953125 L 3.109375 -7.734375 C 3.359375 -8.191406 3.722656 -8.539062 4.203125 -8.78125 C 4.691406 -9.019531 5.207031 -9.140625 5.75 -9.140625 Z M 5.75 -9.140625 "/></g></g><g transform="translate(202.495392, 42.423798)"><g><path d="M 8.359375 -9.140625 C 8.648438 -9.140625 8.890625 -9.046875 9.078125 -8.859375 C 9.265625 -8.671875 9.359375 -8.425781 9.359375 -8.125 L 9.359375 -1.03125 C 9.359375 -0.738281 9.265625 -0.492188 9.078125 -0.296875 C 8.890625 -0.0976562 8.648438 0 8.359375 0 C 8.066406 0 7.828125 -0.09375 7.640625 -0.28125 C 7.453125 -0.476562 7.351562 -0.71875 7.34375 -1 C 7.070312 -0.675781 6.695312 -0.398438 6.21875 -0.171875 C 5.738281 0.0546875 5.238281 0.171875 4.71875 0.171875 C 3.945312 0.171875 3.242188 -0.0234375 2.609375 -0.421875 C 1.984375 -0.828125 1.488281 -1.378906 1.125 -2.078125 C 0.769531 -2.785156 0.59375 -3.585938 0.59375 -4.484375 C 0.59375 -5.378906 0.769531 -6.179688 1.125 -6.890625 C 1.476562 -7.597656 1.96875 -8.148438 2.59375 -8.546875 C 3.21875 -8.941406 3.898438 -9.140625 4.640625 -9.140625 C 5.179688 -9.140625 5.6875 -9.039062 6.15625 -8.84375 C 6.625 -8.65625 7.019531 -8.410156 7.34375 -8.109375 L 7.34375 -8.125 C 7.34375 -8.414062 7.4375 -8.65625 7.625 -8.84375 C 7.820312 -9.039062 8.066406 -9.140625 8.359375 -9.140625 Z M 4.96875 -1.671875 C 5.695312 -1.671875 6.289062 -1.9375 6.75 -2.46875 C 7.207031 -3 7.4375 -3.671875 7.4375 -4.484375 C 7.4375 -5.285156 7.207031 -5.953125 6.75 -6.484375 C 6.289062 -7.023438 5.695312 -7.296875 4.96875 -7.296875 C 4.25 -7.296875 3.660156 -7.023438 3.203125 -6.484375 C 2.742188 -5.953125 2.515625 -5.285156 2.515625 -4.484375 C 2.515625 -3.671875 2.738281 -3 3.1875 -2.46875 C 3.644531 -1.9375 4.238281 -1.671875 4.96875 -1.671875 Z M 4.96875 -1.671875 "/></g></g><g transform="translate(212.950618, 42.423798)"><g><path d="M 8.359375 -12.421875 C 8.648438 -12.421875 8.890625 -12.320312 9.078125 -12.125 C 9.265625 -11.9375 9.359375 -11.691406 9.359375 -11.390625 L 9.359375 -1.03125 C 9.359375 -0.738281 9.265625 -0.492188 9.078125 -0.296875 C 8.890625 -0.0976562 8.648438 0 8.359375 0 C 8.066406 0 7.828125 -0.09375 7.640625 -0.28125 C 7.453125 -0.476562 7.351562 -0.71875 7.34375 -1 C 7.070312 -0.675781 6.695312 -0.398438 6.21875 -0.171875 C 5.738281 0.0546875 5.238281 0.171875 4.71875 0.171875 C 3.945312 0.171875 3.242188 -0.0234375 2.609375 -0.421875 C 1.984375 -0.828125 1.488281 -1.378906 1.125 -2.078125 C 0.769531 -2.785156 0.59375 -3.585938 0.59375 -4.484375 C 0.59375 -5.378906 0.769531 -6.179688 1.125 -6.890625 C 1.476562 -7.597656 1.96875 -8.148438 2.59375 -8.546875 C 3.21875 -8.941406 3.898438 -9.140625 4.640625 -9.140625 C 5.179688 -9.140625 5.6875 -9.039062 6.15625 -8.84375 C 6.625 -8.65625 7.019531 -8.410156 7.34375 -8.109375 L 7.34375 -11.390625 C 7.34375 -11.679688 7.4375 -11.925781 7.625 -12.125 C 7.820312 -12.320312 8.066406 -12.421875 8.359375 -12.421875 Z M 4.96875 -1.671875 C 5.695312 -1.671875 6.289062 -1.9375 6.75 -2.46875 C 7.207031 -3 7.4375 -3.671875 7.4375 -4.484375 C 7.4375 -5.285156 7.207031 -5.953125 6.75 -6.484375 C 6.289062 -7.023438 5.695312 -7.296875 4.96875 -7.296875 C 4.25 -7.296875 3.660156 -7.023438 3.203125 -6.484375 C 2.742188 -5.953125 2.515625 -5.285156 2.515625 -4.484375 C 2.515625 -3.671875 2.738281 -3 3.1875 -2.46875 C 3.644531 -1.9375 4.238281 -1.671875 4.96875 -1.671875 Z M 4.96875 -1.671875 "/></g></g><g transform="translate(223.405845, 42.423798)"><g><path d="M 9.140625 -4.703125 C 9.128906 -4.429688 9.023438 -4.210938 8.828125 -4.046875 C 8.628906 -3.878906 8.394531 -3.796875 8.125 -3.796875 L 2.578125 -3.796875 C 2.710938 -3.128906 3.019531 -2.609375 3.5 -2.234375 C 3.988281 -1.859375 4.535156 -1.671875 5.140625 -1.671875 C 5.597656 -1.671875 5.953125 -1.710938 6.203125 -1.796875 C 6.460938 -1.890625 6.664062 -1.984375 6.8125 -2.078125 C 6.96875 -2.171875 7.070312 -2.234375 7.125 -2.265625 C 7.332031 -2.367188 7.523438 -2.421875 7.703125 -2.421875 C 7.941406 -2.421875 8.144531 -2.332031 8.3125 -2.15625 C 8.476562 -1.988281 8.5625 -1.796875 8.5625 -1.578125 C 8.5625 -1.273438 8.40625 -1 8.09375 -0.75 C 7.78125 -0.5 7.359375 -0.28125 6.828125 -0.09375 C 6.304688 0.0820312 5.773438 0.171875 5.234375 0.171875 C 4.296875 0.171875 3.476562 -0.0195312 2.78125 -0.40625 C 2.082031 -0.800781 1.539062 -1.34375 1.15625 -2.03125 C 0.78125 -2.726562 0.59375 -3.503906 0.59375 -4.359375 C 0.59375 -5.328125 0.789062 -6.171875 1.1875 -6.890625 C 1.59375 -7.617188 2.125 -8.175781 2.78125 -8.5625 C 3.445312 -8.945312 4.15625 -9.140625 4.90625 -9.140625 C 5.632812 -9.140625 6.328125 -8.9375 6.984375 -8.53125 C 7.640625 -8.132812 8.160156 -7.59375 8.546875 -6.90625 C 8.941406 -6.226562 9.140625 -5.492188 9.140625 -4.703125 Z M 4.90625 -7.296875 C 3.601562 -7.296875 2.832031 -6.6875 2.59375 -5.46875 L 7 -5.46875 L 7 -5.59375 C 6.957031 -6.0625 6.726562 -6.460938 6.3125 -6.796875 C 5.894531 -7.128906 5.425781 -7.296875 4.90625 -7.296875 Z M 4.90625 -7.296875 "/></g></g></g><g fill="#000000" fill-opacity="1"><g transform="translate(233.139443, 42.423798)"><g><path d="M 1.859375 -4.140625 C 1.566406 -4.140625 1.320312 -4.234375 1.125 -4.421875 C 0.9375 -4.617188 0.84375 -4.863281 0.84375 -5.15625 C 0.84375 -5.4375 0.9375 -5.671875 1.125 -5.859375 C 1.320312 -6.046875 1.566406 -6.140625 1.859375 -6.140625 L 4.78125 -6.140625 C 5.070312 -6.140625 5.316406 -6.039062 5.515625 -5.84375 C 5.710938 -5.644531 5.8125 -5.40625 5.8125 -5.125 C 5.8125 -4.84375 5.710938 -4.609375 5.515625 -4.421875 C 5.316406 -4.234375 5.070312 -4.140625 4.78125 -4.140625 Z M 1.859375 -4.140625 "/></g></g></g><g fill="#000000" fill-opacity="1"><g transform="translate(239.785143, 42.423798)"><g><path d="M 10.171875 -11.75 C 10.441406 -11.75 10.660156 -11.65625 10.828125 -11.46875 C 10.992188 -11.289062 11.078125 -11.070312 11.078125 -10.8125 L 11.078125 -1.03125 C 11.078125 -0.738281 10.976562 -0.492188 10.78125 -0.296875 C 10.582031 -0.0976562 10.335938 0 10.046875 0 C 9.890625 0 9.734375 -0.0234375 9.578125 -0.078125 C 9.429688 -0.128906 9.328125 -0.195312 9.265625 -0.28125 L 3.109375 -8.109375 L 3.109375 -0.9375 C 3.109375 -0.664062 3.019531 -0.441406 2.84375 -0.265625 C 2.664062 -0.0859375 2.441406 0 2.171875 0 C 1.898438 0 1.679688 -0.0859375 1.515625 -0.265625 C 1.347656 -0.441406 1.265625 -0.664062 1.265625 -0.9375 L 1.265625 -10.71875 C 1.265625 -11.007812 1.359375 -11.253906 1.546875 -11.453125 C 1.742188 -11.648438 1.988281 -11.75 2.28125 -11.75 C 2.445312 -11.75 2.609375 -11.710938 2.765625 -11.640625 C 2.929688 -11.578125 3.054688 -11.488281 3.140625 -11.375 L 9.25 -3.59375 L 9.25 -10.8125 C 9.25 -11.070312 9.332031 -11.289062 9.5 -11.46875 C 9.675781 -11.65625 9.898438 -11.75 10.171875 -11.75 Z M 10.171875 -11.75 "/></g></g></g><g fill="#000000" fill-opacity="1"><g transform="translate(252.119966, 42.423798)"><g><path d="M 9.921875 -6.34375 C 10.210938 -6.34375 10.453125 -6.242188 10.640625 -6.046875 C 10.828125 -5.847656 10.921875 -5.601562 10.921875 -5.3125 L 10.921875 -1.765625 C 10.921875 -1.367188 10.75 -1.066406 10.40625 -0.859375 C 9.3125 -0.171875 8.109375 0.171875 6.796875 0.171875 C 5.691406 0.171875 4.664062 -0.0976562 3.71875 -0.640625 C 2.78125 -1.179688 2.035156 -1.914062 1.484375 -2.84375 C 0.941406 -3.769531 0.671875 -4.78125 0.671875 -5.875 C 0.671875 -6.96875 0.941406 -7.972656 1.484375 -8.890625 C 2.035156 -9.816406 2.78125 -10.550781 3.71875 -11.09375 C 4.664062 -11.644531 5.691406 -11.921875 6.796875 -11.921875 C 7.898438 -11.921875 8.863281 -11.695312 9.6875 -11.25 C 9.851562 -11.15625 9.976562 -11.035156 10.0625 -10.890625 C 10.144531 -10.742188 10.1875 -10.585938 10.1875 -10.421875 C 10.1875 -10.140625 10.09375 -9.894531 9.90625 -9.6875 C 9.71875 -9.476562 9.492188 -9.375 9.234375 -9.375 C 9.066406 -9.375 8.878906 -9.421875 8.671875 -9.515625 C 8.066406 -9.773438 7.441406 -9.90625 6.796875 -9.90625 C 6.078125 -9.90625 5.414062 -9.722656 4.8125 -9.359375 C 4.207031 -8.992188 3.726562 -8.503906 3.375 -7.890625 C 3.03125 -7.273438 2.859375 -6.601562 2.859375 -5.875 C 2.859375 -5.144531 3.03125 -4.472656 3.375 -3.859375 C 3.726562 -3.242188 4.207031 -2.753906 4.8125 -2.390625 C 5.414062 -2.023438 6.078125 -1.84375 6.796875 -1.84375 C 7.109375 -1.84375 7.441406 -1.867188 7.796875 -1.921875 C 8.160156 -1.984375 8.476562 -2.054688 8.75 -2.140625 L 8.75 -4.328125 L 7.171875 -4.328125 C 6.878906 -4.328125 6.632812 -4.421875 6.4375 -4.609375 C 6.238281 -4.804688 6.140625 -5.050781 6.140625 -5.34375 C 6.140625 -5.625 6.238281 -5.859375 6.4375 -6.046875 C 6.632812 -6.242188 6.878906 -6.34375 7.171875 -6.34375 Z M 9.921875 -6.34375 "/></g></g></g></svg>